<svg width="160" height="56" viewBox="0 0 160 56" fill="none" xmlns="http://www.w3.org/2000/svg">
<rect y="-0.00189209" width="160" height="56" rx="28" fill="#894189"/>
<path d="M0 27.9981C0 12.5341 12.536 -0.00189209 28 -0.00189209H45.2619C50.9006 -0.00189209 54.7697 5.67515 52.708 10.9233L36.9682 50.9881C35.7808 54.0105 32.8645 55.9981 29.6172 55.9981H28C12.536 55.9981 0 43.4621 0 27.9981Z" fill="white" fill-opacity="0.07"/>
<path d="M36.6175 34.9981V20.4527H38.8121V33.1089H45.4031V34.9981H36.6175ZM47.7362 34.9981V24.089H49.8597V34.9981H47.7362ZM48.8086 22.4058C48.4393 22.4058 48.122 22.2827 47.8569 22.0365C47.5965 21.7855 47.4663 21.4872 47.4663 21.1416C47.4663 20.7912 47.5965 20.4929 47.8569 20.2467C48.122 19.9957 48.4393 19.8703 48.8086 19.8703C49.1779 19.8703 49.4928 19.9957 49.7532 20.2467C50.0183 20.4929 50.1509 20.7912 50.1509 21.1416C50.1509 21.4872 50.0183 21.7855 49.7532 22.0365C49.4928 22.2827 49.1779 22.4058 48.8086 22.4058ZM57.9084 24.089V25.7936H51.7436V24.089H57.9084ZM53.4339 34.9981V22.8248C53.4339 22.143 53.5831 21.5772 53.8814 21.1274C54.1797 20.6728 54.575 20.3343 55.0675 20.1117C55.5599 19.8845 56.0949 19.7708 56.6726 19.7708C57.0987 19.7708 57.4633 19.8063 57.7663 19.8774C58.0694 19.9437 58.2943 20.0052 58.4411 20.062L57.9439 21.7808C57.8445 21.7524 57.7166 21.7192 57.5604 21.6813C57.4041 21.6387 57.2147 21.6174 56.9922 21.6174C56.4761 21.6174 56.1068 21.7453 55.8842 22.0009C55.6664 22.2566 55.5575 22.6259 55.5575 23.1089V34.9981H53.4339ZM64.3714 35.2183C63.2966 35.2183 62.371 34.9886 61.5945 34.5294C60.8227 34.0653 60.2261 33.4143 59.8047 32.5762C59.388 31.7334 59.1797 30.7462 59.1797 29.6146C59.1797 28.4972 59.388 27.5123 59.8047 26.66C60.2261 25.8078 60.8132 25.1425 61.5661 24.6643C62.3236 24.1861 63.209 23.947 64.2223 23.947C64.8378 23.947 65.4344 24.0488 66.0121 24.2524C66.5897 24.456 67.1082 24.7756 67.5675 25.2112C68.0268 25.6468 68.389 26.2126 68.6541 26.9086C68.9193 27.5999 69.0518 28.4403 69.0518 29.4299V30.1828H60.38V28.5919H66.9709C66.9709 28.0331 66.8572 27.5384 66.63 27.1075C66.4027 26.6719 66.0831 26.3286 65.6712 26.0777C65.264 25.8267 64.7857 25.7012 64.2365 25.7012C63.6399 25.7012 63.1191 25.848 62.674 26.1416C62.2337 26.4304 61.8928 26.8092 61.6513 27.2779C61.4145 27.742 61.2962 28.2462 61.2962 28.7907V30.0336C61.2962 30.7628 61.424 31.3831 61.6797 31.8944C61.9401 32.4058 62.3023 32.7964 62.7663 33.0663C63.2304 33.3314 63.7725 33.464 64.3928 33.464C64.7952 33.464 65.1622 33.4072 65.4936 33.2936C65.825 33.1752 66.1115 33 66.353 32.768C66.5945 32.536 66.7791 32.2495 66.907 31.9086L68.9169 32.2708C68.7559 32.8627 68.4671 33.3812 68.0504 33.8262C67.6385 34.2666 67.12 34.6099 66.495 34.8561C65.8748 35.0975 65.1669 35.2183 64.3714 35.2183Z" fill="white"/>
<path d="M88.5858 37.8932L88.5777 37.8897L88.552 37.8757C88.4018 37.7931 88.2529 37.7083 88.1052 37.6214C86.3293 36.5661 84.6697 35.3265 83.1538 33.923C80.4693 31.4182 77.625 27.7012 77.625 23.1232C77.625 19.7072 80.4997 16.9982 83.9693 16.9982C84.9339 16.9935 85.8871 17.2063 86.758 17.6207C87.629 18.0352 88.3953 18.6407 89 19.3922C89.6048 18.6405 90.3713 18.035 91.2425 17.6205C92.1137 17.206 93.0671 16.9933 94.0318 16.9982C97.5003 16.9982 100.375 19.7072 100.375 23.1232C100.375 27.7024 97.5307 31.4194 94.8462 33.9219C93.3304 35.3253 91.6707 36.565 89.8948 37.6202C89.7471 37.7075 89.5982 37.7927 89.448 37.8757L89.4223 37.8897L89.4142 37.8944L89.4107 37.8955C89.2842 37.9625 89.1432 37.9976 89 37.9976C88.8568 37.9976 88.7158 37.9625 88.5893 37.8955L88.5858 37.8932Z" fill="white"/>
<path d="M98.8933 35.9649L102.083 29.7316H99.8833V25.6982L96.5833 31.9316H98.8933V35.9649ZM99.3333 38.1649C98.3189 38.1649 97.3656 37.9724 96.4733 37.5874C95.5811 37.2024 94.805 36.6799 94.145 36.0199C93.485 35.3599 92.9625 34.5838 92.5775 33.6916C92.1925 32.7993 92 31.846 92 30.8316C92 29.8171 92.1925 28.8638 92.5775 27.9716C92.9625 27.0793 93.485 26.3032 94.145 25.6432C94.805 24.9832 95.5811 24.4607 96.4733 24.0757C97.3656 23.6907 98.3189 23.4982 99.3333 23.4982C100.348 23.4982 101.301 23.6907 102.193 24.0757C103.086 24.4607 103.862 24.9832 104.522 25.6432C105.182 26.3032 105.704 27.0793 106.089 27.9716C106.474 28.8638 106.667 29.8171 106.667 30.8316C106.667 31.846 106.474 32.7993 106.089 33.6916C105.704 34.5838 105.182 35.3599 104.522 36.0199C103.862 36.6799 103.086 37.2024 102.193 37.5874C101.301 37.9724 100.348 38.1649 99.3333 38.1649Z" fill="#894189"/>
<path d="M99.2667 35.4982L102.167 29.8315H100.167V26.1649L97.1667 31.8315H99.2667V35.4982ZM99.6667 37.4982C98.7444 37.4982 97.8778 37.3232 97.0667 36.9732C96.2556 36.6232 95.55 36.1482 94.95 35.5482C94.35 34.9482 93.875 34.2426 93.525 33.4315C93.175 32.6204 93 31.7537 93 30.8315C93 29.9093 93.175 29.0426 93.525 28.2315C93.875 27.4204 94.35 26.7149 94.95 26.1149C95.55 25.5149 96.2556 25.0399 97.0667 24.6899C97.8778 24.3399 98.7444 24.1649 99.6667 24.1649C100.589 24.1649 101.456 24.3399 102.267 24.6899C103.078 25.0399 103.783 25.5149 104.383 26.1149C104.983 26.7149 105.458 27.4204 105.808 28.2315C106.158 29.0426 106.333 29.9093 106.333 30.8315C106.333 31.7537 106.158 32.6204 105.808 33.4315C105.458 34.2426 104.983 34.9482 104.383 35.5482C103.783 36.1482 103.078 36.6232 102.267 36.9732C101.456 37.3232 100.589 37.4982 99.6667 37.4982Z" fill="white"/>
<path d="M121.858 20.4527V34.9981H119.656V22.6544H119.571L116.091 24.9271V22.8248L119.72 20.4527H121.858Z" fill="white"/>
</svg>
